<svg id="レイヤー_1" data-name="レイヤー 1" xmlns="http://www.w3.org/2000/svg" viewBox="0 0 153.77 193.55"><defs><style>.cls-1{fill:#fff;}</style></defs><title>アートボード 1</title><path class="cls-1" d="M153.77,48.35q0,21-27.4,33.2a44.58,44.58,0,0,1,16.61,16,42.34,42.34,0,0,1,6.19,22.4q0,18.21-10.19,29.4-10.41,11.21-28.61,11.2-22.4,0-36.6-25.2l-5.2,31q-.79,5.81-2.8,16.4-2,10.8-9,10.8c-3.46,0-5.2-1.33-5.2-4q0-1.8,3.2-13l3.6-14.8,21.4-96.2Q90.59,16.76,122,16.75a31.05,31.05,0,0,1,22.59,9Q153.78,34.56,153.77,48.35Zm-8.4.4q0-28.59-26-28.6-15.59,0-24.39,18.2-4.82,10.2-9.21,31.4-4.18,20.4-11,59.8,14.4,26,33,26,15.81,0,24.6-11.2,8.2-10.2,8.2-26.4,0-25.4-17.59-35.6A56.89,56.89,0,0,1,108.17,84q-9.39,0-9.4-5.2,0-4.2,7.8-4.2,5.81,0,17.2,5.4A41.25,41.25,0,0,0,139,67.15,30.85,30.85,0,0,0,145.37,48.75Z"/><path class="cls-1" d="M61,53.4a31.65,31.65,0,0,1-7.3-1.1,24.77,24.77,0,0,1-6.5-3.1,38.26,38.26,0,0,1-6.9-5.1q-3.11-2.9-6.7-6.1l-2,1a77.77,77.77,0,0,0,2.3,8.7A26,26,0,0,1,35.2,56a28.56,28.56,0,0,1-.9,7.5,43.33,43.33,0,0,1-2.7,7.1H30a37,37,0,0,1-2.6-7.1,32.12,32.12,0,0,1-.8-7.5,26.38,26.38,0,0,1,1.2-8.5A67.9,67.9,0,0,0,30,39l-1.8-.8a57.23,57.23,0,0,0-6.8,5.9,30.34,30.34,0,0,1-6.6,5.1,22.26,22.26,0,0,1-6.5,3,37.27,37.27,0,0,1-7.5,1L0,52a26.37,26.37,0,0,1,4.7-5.8,34.58,34.58,0,0,1,5.9-4,25.71,25.71,0,0,1,8.1-3.3q3.71-.7,8.5-2.1V34.2a76.29,76.29,0,0,0-8.7-2.5,24.62,24.62,0,0,1-7.9-3.3,38.83,38.83,0,0,1-5.9-4.3A26.34,26.34,0,0,1,.2,18.4L.8,17a27.41,27.41,0,0,1,7.4,1.2,32.82,32.82,0,0,1,6.6,3.2,39.88,39.88,0,0,1,4.3,3q1.7,1.39,3,2.7l2.6,2.6A41.68,41.68,0,0,0,28,32.6l2-1.2Q29,26.8,27.8,23a28.5,28.5,0,0,1-1.2-8.6A30.83,30.83,0,0,1,27.4,7,38,38,0,0,1,30,0h1.6a45,45,0,0,1,2.7,7,27.41,27.41,0,0,1,.9,7.4A28.4,28.4,0,0,1,34,22.6q-1.2,4-2.2,8.8L34,32.6q1.8-1.61,3.2-3L40,26.8a31.92,31.92,0,0,1,3.1-2.7,38.43,38.43,0,0,1,4.1-2.7l3.9-2.1A15.49,15.49,0,0,1,54.3,18c1-.27,2-.5,3.1-.7A19.68,19.68,0,0,1,61,17l.8,1.4A25.5,25.5,0,0,1,57.4,24a40.2,40.2,0,0,1-6.2,4.4,27.72,27.72,0,0,1-8.1,3.4,70.46,70.46,0,0,0-8.3,2.4v2.6q4.8,1.39,8.5,2.1a23.68,23.68,0,0,1,7.9,3.3c2.8,1.73,4.93,3.17,6.4,4.3a16.24,16.24,0,0,1,4.2,5.7Z"/></svg>